<?xml version="1.0" encoding="UTF-8"?>
<svg version="1.1" xmlns="http://www.w3.org/2000/svg" width="256" height="256">
<path d="M0 0 C5.1593063 4.19943536 9.00767994 9.43567965 9.96856499 16.15209389 C10.08179038 18.3152059 10.10448585 20.46018438 10.09155273 22.6262207 C10.09841599 23.44023346 10.10527924 24.25424622 10.11235046 25.09292603 C10.13055397 27.76655854 10.12678934 30.43960044 10.12109375 33.11328125 C10.12565952 34.98504322 10.13096627 36.85680352 10.13697815 38.7285614 C10.14589728 42.64650289 10.14350081 46.56424043 10.13354492 50.48217773 C10.12207266 55.48205217 10.14224611 60.48121849 10.17146206 65.48099995 C10.18988709 69.34598706 10.18951881 73.21080659 10.18382454 77.07582664 C10.18367201 78.91806212 10.18965934 80.76030946 10.20211601 82.60250282 C10.31138392 101.41440257 10.31138392 101.41440257 5.6875 109.1875 C5.3575 109.5175 5.0275 109.8475 4.6875 110.1875 C5.6775 110.5175 6.6675 110.8475 7.6875 111.1875 C7.77386719 110.59582031 7.86023437 110.00414062 7.94921875 109.39453125 C8.92930786 103.88265397 10.05054508 100.72041803 14.6875 97.1875 C18.12377466 95.98959104 21.4740695 96.04797226 25.08911133 96.02636719 C26.38758499 96.01675964 27.68605865 96.0071521 29.02388 95.99725342 C30.43909529 95.99240487 31.85431263 95.98812618 33.26953125 95.984375 C34.72678121 95.97861848 36.18403117 95.97286081 37.64128113 95.96710205 C40.69518383 95.95660825 43.74906033 95.9507551 46.80297852 95.94726562 C50.70341714 95.94178648 54.60350571 95.91776434 58.50383472 95.88929367 C61.51426687 95.87060772 64.52461571 95.86545852 67.53510094 95.86392975 C68.97232666 95.86091575 70.40955135 95.85292978 71.84671974 95.83974457 C87.81660628 95.70369566 87.81660628 95.70369566 93.5625 100.875 C95.21562115 104.27308237 95.37421035 107.42802422 95.6875 111.1875 C96.595 111.22875 97.5025 111.27 98.4375 111.3125 C101.6875 112.1875 101.6875 112.1875 104.125 114.8125 C106.04491363 118.95951344 105.70598216 120.78042299 104.6875 125.1875 C96.47079612 138.69334105 82.03796366 149.27611413 68.6875 157.1875 C71.19450535 166.48980931 75.91527411 173.53225407 82.390625 180.58203125 C85.25114116 184.1232124 85.93174761 186.90609093 85.8125 191.4375 C85.79445312 192.32953125 85.77640625 193.2215625 85.7578125 194.140625 C85.73460937 194.81609375 85.71140625 195.4915625 85.6875 196.1875 C86.7544812 196.16393433 86.7544812 196.16393433 87.84301758 196.13989258 C91.06193104 196.07758085 94.28071768 196.03852133 97.5 196 C98.61955078 195.97486328 99.73910156 195.94972656 100.89257812 195.92382812 C102.50229492 195.90932617 102.50229492 195.90932617 104.14453125 195.89453125 C105.6291687 195.87096558 105.6291687 195.87096558 107.14379883 195.84692383 C109.6875 196.1875 109.6875 196.1875 111.5456543 197.47924805 C112.6875 199.1875 112.6875 199.1875 112.5 202.8125 C112.231875 203.92625 111.96375 205.04 111.6875 206.1875 C108.97390442 207.54429779 106.84980384 207.316553 103.81056213 207.32121277 C101.93237793 207.32761024 101.93237793 207.32761024 100.01625061 207.33413696 C98.62094113 207.33378742 97.22563168 207.33332587 95.83032227 207.33276367 C94.36693231 207.33575446 92.90354315 207.3391568 91.44015503 207.34294128 C87.45878984 207.35179342 83.47744613 207.3541199 79.49607205 207.35475707 C76.17585361 207.35570521 72.8556402 207.3593824 69.5354237 207.36292917 C61.7041959 207.37107825 53.8729796 207.37351298 46.04174805 207.37280273 C37.95516013 207.37220173 29.86863888 207.38275702 21.78206784 207.3985464 C14.84615373 207.411608 7.91026145 207.41698722 0.97433513 207.41634732 C-3.17121634 207.41609194 -7.31670859 207.41896529 -11.46224785 207.42952538 C-15.36018548 207.43918327 -19.25800699 207.4393015 -23.15594864 207.43200874 C-24.58825537 207.43096003 -26.02056925 207.43334269 -27.45286369 207.4393692 C-29.40475412 207.44705135 -31.35668385 207.44126212 -33.30857849 207.43473816 C-34.94869982 207.43555531 -34.94869982 207.43555531 -36.62195492 207.43638897 C-39.3125 207.1875 -39.3125 207.1875 -42.3125 205.1875 C-42.6875 201.6875 -42.6875 201.6875 -42.3125 198.1875 C-39.10843538 196.05145692 -38.31649253 195.94541092 -34.64453125 195.9921875 C-33.75185547 195.99863281 -32.85917969 196.00507813 -31.93945312 196.01171875 C-30.54629883 196.03685547 -30.54629883 196.03685547 -29.125 196.0625 C-28.18462891 196.07152344 -27.24425781 196.08054688 -26.27539062 196.08984375 C-23.95417032 196.11340944 -21.63346356 196.14630884 -19.3125 196.1875 C-19.29832031 195.27613281 -19.28414062 194.36476562 -19.26953125 193.42578125 C-18.89260591 183.18767391 -17.02329187 173.81124239 -14.46875 163.90234375 C-12.96574316 158.11306817 -12.96574316 158.11306817 -12.3125 152.1875 C-14.673611 148.92261446 -17.69741387 147.23694001 -21.1875 145.3125 C-26.40638916 142.26750559 -31.32444725 139.15165824 -33.3125 133.1875 C-33.40896773 131.44805825 -33.44744082 129.70514923 -33.45294189 127.96304321 C-33.45865204 126.88071915 -33.46436218 125.79839508 -33.47024536 124.68327332 C-33.47136322 123.4956691 -33.47248108 122.30806488 -33.47363281 121.08447266 C-33.47859772 119.83385544 -33.48356262 118.58323822 -33.48867798 117.29472351 C-33.50078792 113.8628411 -33.50824497 110.43101963 -33.51268864 106.9991231 C-33.51562061 104.85477339 -33.51972563 102.71042902 -33.52419281 100.566082 C-33.53786467 93.8561088 -33.5475331 87.1461478 -33.5513947 80.43616164 C-33.55587619 72.69177552 -33.57342947 64.94756583 -33.6023953 57.20323336 C-33.62401196 51.21587946 -33.63409895 45.2285752 -33.63543582 39.24118268 C-33.63648378 35.66562897 -33.64238953 32.09024117 -33.66025543 28.51472855 C-33.67979773 24.5261999 -33.67544718 20.53789182 -33.66894531 16.54931641 C-33.6781601 15.36576065 -33.68737488 14.1822049 -33.6968689 12.96278381 C-33.69129974 11.8748201 -33.68573059 10.78685638 -33.67999268 9.66592407 C-33.68145924 8.72313913 -33.6829258 7.78035419 -33.6844368 6.80900002 C-33.23278819 3.62567196 -32.20526777 1.7697566 -30.3125 -0.8125 C-21.36502784 -6.21826443 -8.95172783 -4.89811523 0 0 Z " fill="#030405" transform="translate(42.3125,34.8125)"/>
<path d="M0 0 C1.43263435 -0.01511375 1.43263435 -0.01511375 2.89421082 -0.03053284 C6.04759465 -0.05900054 9.20049962 -0.06488879 12.35400391 -0.06811523 C14.54969479 -0.07775697 16.74538373 -0.0878495 18.94107056 -0.09837341 C23.54262764 -0.1163317 28.14401581 -0.12189472 32.74560547 -0.12011719 C38.63608972 -0.11981232 44.52548905 -0.16077262 50.41571617 -0.21243382 C54.95056106 -0.24582331 59.48514441 -0.25187397 64.02009964 -0.25028801 C66.1913998 -0.2538238 68.36270703 -0.26706931 70.53388596 -0.29028511 C73.57414042 -0.319751 76.61204983 -0.31103123 79.65234375 -0.29296875 C80.54504471 -0.30982727 81.43774567 -0.32668579 82.35749817 -0.34405518 C88.07237344 -0.25797294 91.0324788 0.98443858 95.1713047 4.95359898 C97.98317449 8.19883397 97.59398193 11.00225191 97.61669922 15.19287109 C97.62414658 16.2346476 97.62414658 16.2346476 97.63174438 17.29747009 C97.64637482 19.6000975 97.65316999 21.90265597 97.65869141 24.20532227 C97.66444283 25.80474347 97.67020056 27.40416465 97.67596436 29.00358582 C97.68647732 32.36030397 97.69231782 35.71699816 97.69580078 39.07373047 C97.7012814 43.37124451 97.72529871 47.66844105 97.75377274 51.9658556 C97.77241511 55.27130553 97.7776056 58.5766793 97.77913666 61.88217735 C97.78216091 63.4661908 97.79018179 65.05020298 97.80332184 66.63416481 C97.82041372 68.85319628 97.81849467 71.0714564 97.81201172 73.29052734 C97.81748016 75.18343254 97.81748016 75.18343254 97.82305908 77.11457825 C97.35036483 81.38654962 96.15288962 84.06998879 92.77844238 86.78533936 C87.14024521 89.63034027 82.3011557 89.96653355 76.04931641 89.82641602 C75.08401001 89.82075623 74.11870361 89.81509644 73.12414551 89.80926514 C70.06742924 89.78703064 67.01192312 89.73685877 63.95556641 89.68579102 C61.87225011 89.6657093 59.78891527 89.64746147 57.70556641 89.63110352 C52.62177301 89.58720826 47.53887426 89.51827105 42.45556641 89.43579102 C42.45556641 91.08579102 42.45556641 92.73579102 42.45556641 94.43579102 C43.55022217 94.42008057 44.64487793 94.40437012 45.77270508 94.38818359 C49.84473272 94.33376992 53.91672837 94.29939946 57.98901367 94.27099609 C59.74948537 94.25593549 61.5099197 94.23548276 63.27026367 94.20947266 C65.80478143 94.17296873 68.33880192 94.15603747 70.87353516 94.14282227 C71.65705856 94.12733841 72.44058197 94.11185455 73.24784851 94.09590149 C77.84519915 94.09449449 80.82896493 94.53747725 84.45556641 97.43579102 C89.35542291 104.78557578 87.28681863 119.0881746 86.16699219 127.6394043 C84.0074229 138.32709821 76.15743506 147.25457435 67.45556641 153.43579102 C63.25388097 155.71690407 59.09110216 157.30898063 54.45556641 158.43579102 C54.4462207 159.24209961 54.436875 160.0484082 54.42724609 160.87915039 C54.37325601 164.56529686 54.28966193 168.25021342 54.20556641 171.93579102 C54.19138672 173.20422852 54.17720703 174.47266602 54.16259766 175.77954102 C53.93912052 184.36106299 53.24845096 190.43788568 47.14306641 196.87329102 C43.75763826 198.84156319 41.37259396 199.36707123 37.45556641 199.43579102 C32.18765004 197.85541611 30.1302917 194.99625195 27.43603516 190.47094727 C25.51806219 186.48981612 25.28973155 182.74574674 25.13916016 178.35766602 C25.09726563 177.19750977 25.05537109 176.03735352 25.01220703 174.84204102 C24.97289062 173.63547852 24.93357422 172.42891602 24.89306641 171.18579102 C24.84988281 169.96375977 24.80669922 168.74172852 24.76220703 167.48266602 C24.65619286 164.46715182 24.55412705 161.45155653 24.45556641 158.43579102 C23.78807373 158.17822021 23.12058105 157.92064941 22.43286133 157.65527344 C9.85453261 152.72804635 0.96072848 146.10541824 -4.76708984 133.49438477 C-7.41364611 126.48566541 -7.73190561 119.54178993 -7.79443359 112.12329102 C-7.8037793 111.34614746 -7.813125 110.56900391 -7.82275391 109.76831055 C-7.79193676 104.28641408 -7.4797774 100.37158204 -3.43139648 96.32226562 C0.26789086 93.90498078 2.55012893 93.97514659 6.94384766 94.04516602 C7.64704636 94.05082581 8.35024506 94.0564856 9.07475281 94.06231689 C11.30656888 94.08459333 13.53674102 94.13476729 15.76806641 94.18579102 C17.28692332 94.20586758 18.80580556 94.22411633 20.32470703 94.24047852 C24.03552186 94.28442744 27.74538351 94.35339181 31.45556641 94.43579102 C31.45556641 92.78579102 31.45556641 91.13579102 31.45556641 89.43579102 C30.30556152 89.45150146 29.15555664 89.46721191 27.97070312 89.48339844 C23.68806004 89.5378597 19.40544734 89.57219988 15.12255859 89.60058594 C13.27192022 89.61563572 11.4213173 89.63608035 9.57080078 89.66210938 C6.90469596 89.69866081 4.23906432 89.71555556 1.57275391 89.72875977 C0.75064423 89.74424362 -0.07146545 89.75972748 -0.91848755 89.77568054 C-5.88318695 89.77712215 -9.23720338 89.17590172 -13.54443359 86.43579102 C-17.9329834 81.69141284 -18.66849688 78.31101126 -18.72143555 71.96411133 C-18.72800674 71.3116745 -18.73457794 70.65923767 -18.74134827 69.98703003 C-18.7610464 67.82932411 -18.77273704 65.67168774 -18.78271484 63.51391602 C-18.78679037 62.77519005 -18.7908659 62.03646408 -18.79506493 61.27535248 C-18.81591252 57.3639911 -18.83021891 53.45266465 -18.83959961 49.54125977 C-18.85065122 45.51178037 -18.88503978 41.48285515 -18.92477131 37.45357132 C-18.95098407 34.34620169 -18.95929561 31.23896307 -18.96288109 28.13149261 C-18.96773638 26.64679987 -18.97932023 25.16211257 -18.99791908 23.67752838 C-19.17099819 8.94438251 -19.17099819 8.94438251 -14.54443359 3.43579102 C-9.96035815 -0.24445156 -5.61784283 -0.00851719 0 0 Z " fill="#030203" transform="translate(158.54443359375,13.564208984375)"/>
<path d="M0 0 C0.85353058 0.00045319 1.70706116 0.00090637 2.5864563 0.00137329 C3.9278492 -0.00366463 3.9278492 -0.00366463 5.29634094 -0.00880432 C8.26814137 -0.01834461 11.23988563 -0.02025896 14.21170044 -0.02133179 C16.26814294 -0.02454219 18.32458521 -0.0279061 20.38102722 -0.03141785 C24.69788137 -0.0374168 29.01471547 -0.03925696 33.33157349 -0.03866577 C38.87475999 -0.0385641 44.41781854 -0.05221837 49.96097469 -0.06943798 C54.20992122 -0.08053314 58.45883657 -0.08258575 62.7077961 -0.08205605 C64.7520142 -0.08323984 66.79623301 -0.08768382 68.84043694 -0.09538841 C71.69467107 -0.10513847 74.5486243 -0.10233011 77.40286255 -0.09628296 C78.2543689 -0.10190247 79.10587524 -0.10752197 79.98318481 -0.11331177 C85.8310414 -0.08167833 85.8310414 -0.08167833 88.05935669 2.14663696 C88.31332397 4.80337524 88.31332397 4.80337524 88.31814575 8.21694946 C88.32445007 9.49167114 88.33075439 10.76639282 88.33724976 12.07974243 C88.33367008 13.47704201 88.32956815 14.87434033 88.32498169 16.27163696 C88.3263284 17.69888373 88.32826898 19.12613005 88.33078003 20.55337524 C88.33373103 23.54609541 88.32943451 26.53869628 88.32009888 29.53140259 C88.30870424 33.3718007 88.31526386 37.21191928 88.3272438 41.05230713 C88.33446312 43.99992996 88.33217417 46.94748628 88.32698822 49.89511108 C88.32565191 51.31133049 88.32729878 52.7275559 88.33194733 54.14376831 C88.33701344 56.12128589 88.32792576 58.09882458 88.31814575 60.07632446 C88.31655457 61.20280396 88.31496338 62.32928345 88.31332397 63.48989868 C88.05935669 66.14663696 88.05935669 66.14663696 86.05935669 68.14663696 C84.1484375 68.387146 84.1484375 68.387146 81.79324341 68.37368774 C80.91248138 68.37353668 80.03171936 68.37338562 79.12426758 68.37322998 C78.17214386 68.36290741 77.22002014 68.35258484 76.23904419 68.34194946 C74.77835007 68.33770462 74.77835007 68.33770462 73.28814697 68.33337402 C70.1700932 68.32215609 67.05232401 68.29704866 63.93435669 68.27163696 C61.82368375 68.26160924 59.71300631 68.25248303 57.60232544 68.24429321 C52.42123834 68.22221154 47.24031784 68.18871826 42.05935669 68.14663696 C41.97846127 65.37521979 41.91891607 62.60615877 41.87185669 59.83413696 C41.84671997 59.04845337 41.82158325 58.26276978 41.79568481 57.45327759 C41.78601685 56.69595337 41.77634888 55.93862915 41.76638794 55.15835571 C41.75067749 54.46185913 41.73496704 53.76536255 41.71878052 53.04776001 C42.16877934 50.53583108 43.02262625 49.64490438 45.05935669 48.14663696 C50.4941393 48.58141957 50.4941393 48.58141957 52.05935669 50.14663696 C52.34473991 53.4761079 52.50828302 56.80561324 52.68045044 60.14273071 C52.76153222 63.2575165 52.76153222 63.2575165 55.05935669 65.14663696 C57.60125671 65.39671426 57.60125671 65.39671426 60.05935669 65.14663696 C62.08510823 63.12088542 61.33511429 59.22461479 61.37185669 56.45913696 C61.4008606 55.75079712 61.4298645 55.04245728 61.45974731 54.31265259 C61.52190955 49.13406047 60.46717977 46.25207601 57.05935669 42.14663696 C52.67562215 39.22414727 49.2815807 38.58711296 44.05935669 39.14663696 C39.37765401 40.8908007 36.84686478 43.01699535 34.05935669 47.14663696 C33.1729628 49.80581862 32.87946644 51.62728337 32.74295044 54.37710571 C32.70105591 55.17954712 32.65916138 55.98198853 32.61599731 56.80874634 C32.57668091 57.64212524 32.5373645 58.47550415 32.49685669 59.33413696 C32.4320813 60.60160767 32.4320813 60.60160767 32.36599731 61.89468384 C32.26004151 63.9784813 32.15920649 66.062538 32.05935669 68.14663696 C26.66588681 68.17128546 21.27244944 68.18947227 15.87893677 68.2015686 C14.04266794 68.20660928 12.20640315 68.21344173 10.37014771 68.22207642 C7.73659268 68.23415368 5.10309053 68.23986777 2.46951294 68.24429321 C1.23044945 68.25203514 1.23044945 68.25203514 -0.03364563 68.25993347 C-2.00300699 68.26012901 -3.97225945 68.20867848 -5.94064331 68.14663696 C-7.76620448 66.32107579 -7.06836734 63.44125093 -7.07003784 60.99038696 C-7.07319 59.67232056 -7.07634216 58.35425415 -7.07958984 56.99624634 C-7.07780007 55.54637621 -7.07574911 54.09650638 -7.07345581 52.64663696 C-7.07412889 51.17072534 -7.07509894 49.69481383 -7.07635498 48.21890259 C-7.07783179 45.12188667 -7.07567795 42.02489954 -7.0710144 38.92788696 C-7.06531712 34.94955148 -7.06859621 30.97128345 -7.07458687 26.99295044 C-7.07819294 23.94415779 -7.07705368 20.89538125 -7.07445908 17.84658813 C-7.07378994 16.3793029 -7.07461778 14.91201622 -7.07693863 13.44473267 C-7.07946588 11.39745103 -7.07493391 9.3501643 -7.07003784 7.30288696 C-7.06924225 6.13564087 -7.06844666 4.96839478 -7.06762695 3.76577759 C-6.83078059 -1.11937082 -4.28027047 0.02362879 0 0 Z " fill="#D9F4FD" transform="translate(157.94064331054688,23.853363037109375)"/>
<path d="M0 0 C38.61 0 77.22 0 117 0 C108.76491642 10.98011144 100.34395308 18.25060776 88.6628418 25.1574707 C84.4303844 27.711238 84.4303844 27.711238 81.5078125 31.609375 C79.59642594 40.60759483 84.81615309 48.39564084 89 56 C89.66 56.99 90.32 57.98 91 59 C89.72125 59.12375 88.4425 59.2475 87.125 59.375 C83.65209064 59.69042399 83.65209064 59.69042399 81 62 C80.7499227 64.54190002 80.7499227 64.54190002 81 67 C83.11925604 69.11925604 87.6196093 68.41831017 90.5625 68.5625 C91.77196289 68.62727539 91.77196289 68.62727539 93.00585938 68.69335938 C95.00368805 68.79975262 97.0018207 68.90040888 99 69 C99 70.98 99 72.96 99 75 C71.28 75 43.56 75 15 75 C15 73.02 15 71.04 15 69 C15.96413818 68.97494385 16.92827637 68.9498877 17.92163086 68.92407227 C21.48687842 68.83014694 25.05192433 68.72989061 28.61694336 68.62768555 C30.16214289 68.58428015 31.70739214 68.54260929 33.25268555 68.50268555 C35.46939096 68.44511801 37.6858448 68.38138576 39.90234375 68.31640625 C40.5971434 68.29969376 41.29194305 68.28298126 42.00779724 68.26576233 C45.28762029 68.43497144 45.28762029 68.43497144 48 67 C48.04080783 65.00041636 48.04254356 62.99954746 48 61 C45.10075634 59.55037817 42.47699645 59.77873519 39.2421875 59.68359375 C38.24761032 59.6524221 38.24761032 59.6524221 37.23294067 59.62062073 C35.11373306 59.55520769 32.994401 59.49627895 30.875 59.4375 C29.43878919 59.39430691 28.00259098 59.35069236 26.56640625 59.30664062 C23.04440406 59.19953501 19.52226175 59.09824425 16 59 C16.45833333 56.64583333 16.91666667 54.29166667 17.375 51.9375 C17.51341309 51.21812256 17.65182617 50.49874512 17.79443359 49.75756836 C18.4281518 46.54833197 19.1563756 43.46628327 20.078125 40.3203125 C21.69686176 34.49011654 22.02289528 29.25889374 19.5 23.6875 C16.8970876 20.88936917 14.44902946 19.19287256 11.16796875 17.296875 C7.26430871 14.9617126 3.2284315 12.2284315 0 9 C0 6.03 0 3.06 0 0 Z " fill="#57D8FB" transform="translate(19,156)"/>
<path d="M0 0 C6.93 0 13.86 0 21 0 C21.09053508 8.8755714 21.16385034 17.75083381 21.20724869 26.62676334 C21.22808259 30.74866518 21.25632261 34.87023346 21.30175781 38.99194336 C21.34536665 42.97309565 21.36916865 46.95392803 21.37950897 50.93530083 C21.38687351 52.45070872 21.4012548 53.96610002 21.42292023 55.48137093 C21.62650092 70.31590891 21.62650092 70.31590891 17 76 C10.89240288 80.73650389 8.05784887 81 0 81 C0 54.27 0 27.54 0 0 Z " fill="#58DAFE" transform="translate(20,65)"/>
<path d="M0 0 C23.76 0 47.52 0 72 0 C70.45091387 9.29451677 67.55327214 14.00581119 60.51171875 20.23828125 C53.19052428 25.37336477 46.922978 25.50267522 38.09399414 25.44604492 C36.07009133 25.43753193 34.04901589 25.4663548 32.02539062 25.49804688 C22.39397187 25.49325751 15.8632116 24.17415712 8.44921875 17.61328125 C3.65026055 12.27104476 1.17541779 7.05250675 0 0 Z " fill="#FD54A1" transform="translate(162,136)"/>
<path d="M0 0 C2.48046875 -0.390625 2.48046875 -0.390625 5.1875 -0.25 C6.08855469 -0.21390625 6.98960938 -0.1778125 7.91796875 -0.140625 C8.94857422 -0.07101563 8.94857422 -0.07101563 10 0 C10.66 1.32 11.32 2.64 12 4 C14.37374861 4.33425735 14.37374861 4.33425735 17 4 C17.66515625 3.01 17.66515625 3.01 18.34375 2 C20 0 20 0 22.48046875 -0.390625 C23.82044922 -0.32101563 23.82044922 -0.32101563 25.1875 -0.25 C26.08855469 -0.21390625 26.98960938 -0.1778125 27.91796875 -0.140625 C28.60503906 -0.09421875 29.29210937 -0.0478125 30 0 C30.99 1.98 30.99 1.98 32 4 C37.61 4.33 43.22 4.66 49 5 C49 6.98 49 8.96 49 11 C21.28 11 -6.44 11 -35 11 C-35 9.02 -35 7.04 -35 5 C-34.04633545 4.9906543 -33.0926709 4.98130859 -32.11010742 4.97167969 C-28.57057038 4.93179567 -25.03190407 4.86604341 -21.49291992 4.79248047 C-19.96145822 4.76426122 -18.42985061 4.74305131 -16.89819336 4.72900391 C-14.69569151 4.70758574 -12.49494541 4.66094862 -10.29296875 4.609375 C-9.60849167 4.60814636 -8.92401459 4.60691772 -8.21879578 4.60565186 C-6.04367918 4.58201142 -6.04367918 4.58201142 -3 4 C-1.17413885 2.08350795 -1.17413885 2.08350795 0 0 Z " fill="#D4EFF8" transform="translate(69,220)"/>
<path d="M0 0 C24.09 0 48.18 0 73 0 C73 2.64 73 5.28 73 8 C48.91 8 24.82 8 0 8 C0 5.36 0 2.72 0 0 Z " fill="#ECD3DE" transform="translate(162,118)"/>
<path d="M0 0 C2.79296875 0.828125 2.79296875 0.828125 3.79296875 1.828125 C4.0223865 7.21944213 2.41142936 9.62555566 -1.20703125 13.578125 C-2.02171875 14.42890625 -2.83640625 15.2796875 -3.67578125 16.15625 C-6.16674701 18.78560274 -8.44119196 21.50380419 -10.70703125 24.328125 C-13.75438882 28.06806384 -16.81045903 31.79601623 -19.95703125 35.453125 C-20.653125 36.27039063 -21.34921875 37.08765625 -22.06640625 37.9296875 C-24.50585108 40.09313675 -25.98059647 40.60838443 -29.20703125 40.828125 C-31.08203125 39.765625 -31.08203125 39.765625 -32.20703125 37.828125 C-31.93084073 32.62411409 -30.30166965 30.30737806 -26.70703125 26.640625 C-25.80082031 25.68929687 -24.89460937 24.73796875 -23.9609375 23.7578125 C-23.4983252 23.27280273 -23.03571289 22.78779297 -22.55908203 22.28808594 C-20.47471403 20.03735993 -18.56480375 17.65665213 -16.64453125 15.265625 C-15.91492188 14.37230469 -15.1853125 13.47898437 -14.43359375 12.55859375 C-12.89684046 10.67404893 -11.37146088 8.78019206 -9.85546875 6.87890625 C-9.08460938 5.95464844 -8.31375 5.03039063 -7.51953125 4.078125 C-6.83503906 3.23765625 -6.15054688 2.3971875 -5.4453125 1.53125 C-3.20703125 -0.171875 -3.20703125 -0.171875 0 0 Z " fill="#050606" transform="translate(199.20703125,32.171875)"/>
<path d="M0 0 C21.78 0 43.56 0 66 0 C66 1.32 66 2.64 66 4 C44.22 4 22.44 4 0 4 C0 2.68 0 1.36 0 0 Z " fill="#DAF4FD" transform="translate(61,142)"/>
<path d="M0 0 C13.2164831 -0.44549943 13.2164831 -0.44549943 19 3 C20.9375 4.8125 20.9375 4.8125 22 7 C22 8.98 22 10.96 22 13 C14.74 13 7.48 13 0 13 C0 8.71 0 4.42 0 0 Z " fill="#CFE9F1" transform="translate(19,42)"/>
<path d="M0 0 C2.875 0.75 2.875 0.75 3.875 1.75 C4.16038322 5.07947093 4.32392633 8.40897628 4.49609375 11.74609375 C4.57717553 14.86087954 4.57717553 14.86087954 6.875 16.75 C8.19247324 17.44748583 9.52414193 18.11959957 10.875 18.75 C7.80966836 20.28266582 4.60745728 19.85276471 1.25 19.8125 C0.54359375 19.80798828 -0.1628125 19.80347656 -0.890625 19.79882812 C-2.63545275 19.78703875 -4.380237 19.76910324 -6.125 19.75 C-6.20589542 16.97858283 -6.26544062 14.20952181 -6.3125 11.4375 C-6.35020508 10.25897461 -6.35020508 10.25897461 -6.38867188 9.05664062 C-6.39833984 8.29931641 -6.40800781 7.54199219 -6.41796875 6.76171875 C-6.4336792 6.06522217 -6.44938965 5.36872559 -6.46557617 4.65112305 C-5.75020355 0.65785669 -3.86108436 -0.30888675 0 0 Z " fill="#CFE8F1" transform="translate(206.125,72.25)"/>
<path d="M0 0 C2.31 0 4.62 0 7 0 C7.08729047 4.06236402 7.14048992 8.12448589 7.1875 12.1875 C7.21263672 13.33798828 7.23777344 14.48847656 7.26367188 15.67382812 C7.27333984 16.78564453 7.28300781 17.89746094 7.29296875 19.04296875 C7.3086792 20.06414795 7.32438965 21.08532715 7.34057617 22.13745117 C6.94974253 25.4224149 5.8743096 27.30851735 4 30 C2.02441406 28.88745117 2.02441406 28.88745117 0 27 C-0.45410156 24.1809082 -0.45410156 24.1809082 -0.390625 20.80078125 C-0.37773437 19.59228516 -0.36484375 18.38378906 -0.3515625 17.13867188 C-0.31804687 15.87603516 -0.28453125 14.61339844 -0.25 13.3125 C-0.23195312 12.03826172 -0.21390625 10.76402344 -0.1953125 9.45117188 C-0.14810441 6.30003159 -0.08226384 3.1503886 0 0 Z " fill="#F4DBE6" transform="translate(195,172)"/>
<path d="M0 0 C2.4375 0.8125 2.4375 0.8125 4.4375 2.8125 C4.10778521 6.10964793 3.8148161 7.4351839 1.4375 9.8125 C-1.0625 10.0625 -1.0625 10.0625 -3.5625 9.8125 C-5.5625 7.8125 -5.5625 7.8125 -5.875 5.375 C-5.5625 2.8125 -5.5625 2.8125 -4.375 0.9375 C-2.5625 -0.1875 -2.5625 -0.1875 0 0 Z " fill="#080F11" transform="translate(84.5625,215.1875)"/>
</svg>
